<?xml version="1.0" encoding="UTF-8"?>
<svg width="1200pt" height="1200pt" version="1.1" viewBox="0 0 1200 1200" xmlns="http://www.w3.org/2000/svg">
 <g fill="#fcf9ee">
  <path d="m1138.7 1111.7c-3.75-3.7305-88.668-86.926-272.06-128.68 8.5859-14.457 15.75-29.68 21.168-45.562h12.637c41.363 0 75-33.637 75-75s-33.637-75-75-75v37.5c20.68 0 37.5 16.82 37.5 37.5s-16.82 37.5-37.5 37.5l-3.4102-0.003906c2.0234-12.281 3.4297-24.73 3.4297-37.5h-37.5c0 124.07-117.75 225-262.5 225s-262.5-100.93-262.5-225h-37.5c0 12.77 1.4062 25.219 3.4297 37.5h-3.4297c-20.68 0-37.5-16.82-37.5-37.5 0-20.68 16.82-37.5 37.5-37.5v-37.5c-41.363 0-75 33.637-75 75s33.637 75 75 75h12.637c5.418 15.883 12.562 31.086 21.168 45.562-183.39 41.773-268.31 124.95-272.06 128.68l26.512 26.512c0.86328-0.86328 85.727-83.551 269.27-121.8 54.582 65.625 142.8 108.54 242.48 108.54 99.676 0 187.88-42.918 242.48-108.54 182.61 38.117 268.43 120.98 269.3 121.84z"/>
  <path d="m600.39 918.73c31.031 0 56.27-25.238 56.27-56.25v-75h-37.5v75c0 10.352-8.418 18.75-18.77 18.75-10.332 0-18.73-8.3984-18.73-18.75v-75h-37.5v75c0 31.012 25.234 56.25 56.23 56.25z"/>
  <path d="m835.84 676.05c-65.926-43.969-130.61-1.8203-133.31 0l20.793 31.199c0.44922-0.32031 46.367-30.227 91.727 0z"/>
  <path d="m365.01 715.63 20.793 31.199c0.44922-0.32031 46.387-30.207 91.727 0l20.793-31.199c-65.906-43.969-130.61-1.8203-133.31 0z"/>
  <path d="m487.91 796.86c0 15.535-12.594 28.125-28.125 28.125-15.535 0-28.125-12.59-28.125-28.125 0-15.531 12.59-28.125 28.125-28.125 15.531 0 28.125 12.594 28.125 28.125"/>
  <path d="m806.66 796.86c0 15.535-12.594 28.125-28.125 28.125-15.535 0-28.125-12.59-28.125-28.125 0-15.531 12.59-28.125 28.125-28.125 15.531 0 28.125 12.594 28.125 28.125"/>
  <path d="m768.56 937.5-37.5-0.24219c-0.14844 5.793-4.1055 56.512-93.75 56.512v37.5c129.75 0 131.25-92.832 131.25-93.77z"/>
  <path d="m281.68 581.23c2.0234 0 3.8984-0.54297 5.7383-1.1641l0.1875 0.1875 130.29-43.426 0.039062-0.16797c2.5859-0.86328 5.0625-2.1562 7.1445-4.2188l338.46-331.59c3.582-3.5078 5.6055-8.2695 5.625-13.293 0.019532-5.0078-1.9492-9.8047-5.4922-13.352l-93.75-93.75c-3.5234-3.5234-8.2891-5.4922-13.258-5.4922h-0.09375c-5.0078 0.039062-9.7891 2.0625-13.297 5.6445l-331.57 338.48c-2.043 2.082-3.3359 4.5547-4.2188 7.1641l-0.1875 0.039062-43.426 130.27 0.1875 0.20703c-0.60156 1.8359-1.1641 3.6953-1.1641 5.7383 0.023437 10.348 8.4219 18.727 18.789 18.727zm29.645-48.395 21.977-65.926 43.949 43.949zm83.719-57.203 226.84-226.86 19.387 19.387-229.16 224.51zm-26.512-26.516-17.043-17.043 224.51-229.18 19.387 19.367zm288.28-328.72 66.957 66.957-55.727 54.582-65.832-65.832z"/>
  <path d="m731.66 562.48c0-10.367-8.3984-18.75-18.75-18.75h-262.5c-10.352 0-18.75 8.3828-18.75 18.75 0 10.367 8.3984 18.75 18.75 18.75h262.5c10.348 0 18.75-8.3789 18.75-18.75z"/>
  <path d="m806.68 562.48c0 10.355-8.3945 18.75-18.75 18.75-10.355 0-18.75-8.3945-18.75-18.75s8.3945-18.75 18.75-18.75c10.355 0 18.75 8.3945 18.75 18.75"/>
  <path d="m881.68 562.48c0 10.355-8.3945 18.75-18.75 18.75-10.355 0-18.75-8.3945-18.75-18.75s8.3945-18.75 18.75-18.75c10.355 0 18.75 8.3945 18.75 18.75"/>
  <path d="m956.68 562.48c0 10.355-8.3945 18.75-18.75 18.75-10.355 0-18.75-8.3945-18.75-18.75s8.3945-18.75 18.75-18.75c10.355 0 18.75 8.3945 18.75 18.75"/>
 </g>
</svg>
