<?xml version="1.0" encoding="UTF-8"?>
<svg width="1200pt" height="1200pt" version="1.1" viewBox="0 0 1200 1200" xmlns="http://www.w3.org/2000/svg">
 <g>
  <path d="m360.13 652.37c-14.613-14.629-34.059-23.426-54.691-24.75-20.633-1.3242-41.039 4.918-57.402 17.555-16.363 12.641-27.559 30.809-31.492 51.105l-1.5898-1.5898v0.003906c-17.637-17.543-27.523-41.414-27.457-66.289v-403.4c0-26.793-14.293-51.555-37.5-64.953-23.207-13.395-51.793-13.395-75 0-23.207 13.398-37.5 38.16-37.5 64.953v503.59c-0.074219 27.098 5.2266 53.938 15.598 78.973 10.367 25.031 25.602 47.762 44.812 66.867l110.61 110.61c10.582 10.527 16.516 24.852 16.477 39.777v137.68h37.5v-137.68c0.066406-24.879-9.8203-48.75-27.457-66.293l-110.61-110.61h-0.003907c-15.719-15.633-28.18-34.23-36.664-54.711-8.4844-20.484-12.824-42.445-12.762-64.613v-503.59c0-13.398 7.1484-25.777 18.75-32.477 11.602-6.6992 25.898-6.6992 37.5 0 11.602 6.6992 18.75 19.078 18.75 32.477v403.4c-0.09375 34.828 13.746 68.246 38.441 92.805l173.3 173.3 26.516-26.52-121.88-121.88c-12-12.012-16.68-29.512-12.281-45.91 4.3984-16.398 17.207-29.207 33.605-33.602 16.398-4.3984 33.898 0.28516 45.91 12.281l85.707 85.707c15.719 15.633 28.18 34.23 36.664 54.711 8.4844 20.484 12.824 42.445 12.762 64.613v278.59h37.5v-278.59c0.074219-27.098-5.2266-53.938-15.598-78.973-10.367-25.031-25.602-47.762-44.812-66.867z"/>
  <path d="m1087.5 150c-19.883 0.023438-38.949 7.9297-53.008 21.992-14.062 14.059-21.969 33.125-21.992 53.008v403.4c0.066406 24.875-9.8203 48.746-27.457 66.289l-1.5898 1.5898v-0.003906c-3.9414-20.293-15.137-38.457-31.5-51.09-16.363-12.637-36.766-18.875-57.398-17.555-20.629 1.3203-40.07 10.113-54.688 24.734l-85.707 85.707c-19.211 19.105-34.445 41.836-44.812 66.867-10.371 25.035-15.672 51.875-15.598 78.973v278.59h37.5v-278.59c-0.0625-22.168 4.2773-44.129 12.762-64.613 8.4844-20.48 20.945-39.078 36.664-54.711l85.707-85.707c12.016-11.984 29.508-16.66 45.898-12.262 16.391 4.3984 29.195 17.203 33.594 33.594 4.4023 16.391-0.26953 33.883-12.258 45.898l-121.88 121.88 26.516 26.52 173.3-173.3c24.691-24.559 38.535-57.977 38.441-92.805v-403.4c0-13.398 7.1484-25.777 18.75-32.477 11.602-6.6992 25.898-6.6992 37.5 0 11.602 6.6992 18.75 19.078 18.75 32.477v503.59c0.0625 22.168-4.2773 44.129-12.762 64.613-8.4844 20.48-20.945 39.078-36.664 54.711l-110.62 110.61c-17.637 17.547-27.523 41.414-27.457 66.293v137.68h37.5v-137.68c-0.039062-14.926 5.8906-29.25 16.477-39.773l110.61-110.61v-0.003907c19.211-19.105 34.445-41.836 44.812-66.867 10.371-25.035 15.672-51.875 15.598-78.973v-503.59c-0.023438-19.883-7.9297-38.949-21.992-53.008-14.059-14.062-33.125-21.969-53.008-21.992z"/>
  <path d="m750 600v-18.75h150c14.914-0.015625 29.211-5.9492 39.758-16.492 10.543-10.547 16.477-24.844 16.492-39.758v-72.52c-0.054688-19.742-10.41-38.027-27.309-48.234l-62.645-37.586 11.109-33.32h-0.003906c2.5508-7.6484 3.8516-15.656 3.8477-23.719v-28.371c0-26.793-14.293-51.555-37.5-64.953-23.207-13.395-51.793-13.395-75 0-23.207 13.398-37.5 38.16-37.5 64.953v28.371c-0.003906 8.0625 1.2969 16.07 3.8477 23.719l11.109 33.32-43.082 25.848-43.082-25.848 11.109-33.32c2.5508-7.6484 3.8516-15.656 3.8477-23.719v-28.371c0-26.793-14.293-51.555-37.5-64.953-23.207-13.395-51.793-13.395-75 0-23.207 13.398-37.5 38.16-37.5 64.953v28.371c-0.003906 8.0625 1.2969 16.07 3.8477 23.719l11.109 33.32-43.082 25.848-43.082-25.848 11.109-33.32c2.5508-7.6484 3.8516-15.656 3.8477-23.719v-28.371c0-26.793-14.293-51.555-37.5-64.953-23.207-13.395-51.793-13.395-75 0-23.207 13.398-37.5 38.16-37.5 64.953v28.371c-0.003906 8.0625 1.2969 16.07 3.8477 23.719l11.109 33.32-62.648 37.586c-16.902 10.207-27.254 28.492-27.309 48.234v72.52c0.015625 14.914 5.9492 29.211 16.492 39.758 10.547 10.543 24.844 16.477 39.758 16.492h150v18.75c0.015625 14.914 5.9492 29.211 16.492 39.758 10.547 10.543 24.844 16.477 39.758 16.492h187.5c14.914-0.015625 29.211-5.9492 39.758-16.492 10.543-10.547 16.477-24.844 16.492-39.758zm41.293-216.66-20.621-61.863c-1.2734-3.8203-1.9219-7.8242-1.9219-11.855v-28.371c0-13.398 7.1484-25.777 18.75-32.477 11.602-6.6992 25.898-6.6992 37.5 0 11.602 6.6992 18.75 19.078 18.75 32.477v28.371c0 4.0312-0.64844 8.0352-1.9219 11.855l-20.621 61.863 88.441 53.062-0.003907 0.003906c5.6367 3.3984 9.0859 9.4922 9.1055 16.074v72.52c-0.003906 4.9727-1.9844 9.7383-5.4961 13.254-3.5156 3.5117-8.2812 5.4922-13.254 5.4961h-150v-91.27c-0.035156-13.309-4.7695-26.18-13.367-36.344zm-491.29 160.41c-4.9727-0.003906-9.7383-1.9844-13.254-5.4961-3.5117-3.5156-5.4922-8.2812-5.4961-13.254v-72.52c0.019531-6.582 3.4688-12.676 9.1016-16.074l88.441-53.062-20.621-61.863v-0.003907c-1.2734-3.8203-1.9219-7.8242-1.9219-11.855v-28.371c0-13.398 7.1484-25.777 18.75-32.477 11.602-6.6992 25.898-6.6992 37.5 0 11.602 6.6992 18.75 19.078 18.75 32.477v28.371c0 4.0312-0.64844 8.0352-1.9219 11.855l-20.621 61.863 54.66 32.797c-8.5977 10.164-13.332 23.035-13.367 36.344v91.27zm187.5 56.25v-147.52c0.019531-6.582 3.4688-12.676 9.1016-16.074l88.441-53.062-20.621-61.863v-0.003907c-1.2734-3.8203-1.9219-7.8242-1.9219-11.855v-28.371c0-13.398 7.1484-25.777 18.75-32.477 11.602-6.6992 25.898-6.6992 37.5 0 11.602 6.6992 18.75 19.078 18.75 32.477v28.371c0 4.0312-0.64844 8.0352-1.9219 11.855l-20.621 61.863 88.441 53.062-0.003907 0.003906c5.6367 3.3984 9.0859 9.4922 9.1055 16.074v147.52c-0.003906 4.9727-1.9844 9.7383-5.4961 13.254-3.5156 3.5117-8.2812 5.4922-13.254 5.4961h-187.5c-4.9727-0.003906-9.7383-1.9844-13.254-5.4961-3.5117-3.5156-5.4922-8.2812-5.4961-13.254z"/>
  <path d="m281.25 150h225v37.5h37.5v-112.5h243.75v93.75h131.25v187.5h37.5v-225h-131.25v-93.75h-318.75v75h-262.5v243.75h37.5z"/>
  <path d="m581.25 112.5h56.25v37.5h-56.25z"/>
  <path d="m693.75 112.5h56.25v37.5h-56.25z"/>
 </g>
</svg>
